<?xml version="1.0" standalone="no"?>
<!DOCTYPE svg PUBLIC "-//W3C//DTD SVG 20010904//EN"
 "http://www.w3.org/TR/2001/REC-SVG-20010904/DTD/svg10.dtd">
<svg version="1.0" xmlns="http://www.w3.org/2000/svg"
 width="512.000000pt" height="512.000000pt" viewBox="0 0 512.000000 512.000000"
 preserveAspectRatio="xMidYMid meet">
<metadata>
Created by potrace 1.11, written by Peter Selinger 2001-2013
</metadata>
<g transform="translate(0.000000,512.000000) scale(0.100000,-0.100000)"
fill="#000000" stroke="none">
<path d="M2895 3905 c-69 -19 -222 -97 -270 -138 l-39 -34 12 -42 13 -41 84 0
c63 0 87 -4 100 -16 14 -14 15 -108 13 -977 -3 -898 -4 -964 -21 -994 -20 -37
-52 -56 -121 -74 -51 -13 -52 -16 -26 -84 l10 -25 274 0 274 0 16 25 c16 24
15 26 -18 72 -50 71 -66 107 -82 186 -18 84 -20 343 -4 462 30 217 103 397
205 501 104 106 237 152 349 120 133 -39 185 -202 111 -352 -71 -144 -243
-210 -448 -169 -100 20 -117 14 -117 -40 0 -33 17 -53 60 -72 20 -8 55 -66
150 -249 209 -399 242 -448 335 -497 56 -29 185 -35 254 -12 61 20 155 87 194
139 27 34 28 38 13 59 -43 62 -39 61 -94 23 -81 -54 -171 -57 -216 -7 -10 10
-75 128 -146 262 -108 205 -126 245 -112 250 9 4 39 12 66 18 211 50 376 254
376 467 0 171 -108 327 -264 381 -72 25 -241 25 -314 -1 -70 -24 -187 -103
-245 -165 -50 -53 -123 -161 -153 -226 -19 -40 -19 -34 -22 587 l-2 626 -31
26 c-35 30 -82 33 -164 11z"/>
<path d="M1612 3059 c-30 -5 -88 -21 -130 -35 -353 -117 -552 -467 -512 -896
28 -294 167 -513 395 -622 181 -87 439 -89 642 -5 128 54 303 196 303 247 0
27 -50 82 -74 82 -9 0 -44 -22 -79 -49 -113 -89 -217 -127 -371 -138 -146 -10
-279 38 -358 127 -112 126 -158 326 -137 587 26 325 151 519 357 552 206 33
360 -99 355 -304 -3 -135 -94 -267 -218 -315 -81 -32 -242 -35 -328 -5 -66 22
-81 15 -93 -42 -6 -28 -2 -37 28 -67 51 -51 145 -78 293 -83 202 -8 335 38
455 157 115 114 167 245 157 396 -12 201 -161 364 -376 410 -73 15 -226 17
-309 3z"/>
</g>
</svg>
